<svg width="694" height="768" viewBox="0 0 694 768" fill="none" xmlns="http://www.w3.org/2000/svg">
<path d="M372.268 255.629L359.652 254.076C351.47 253.069 343.706 257.717 340.533 265.335C316.9 322.087 257.766 358.52 193.787 350.643C116.776 341.163 62.1218 271.097 71.6141 193.989C81.1049 116.893 151.11 62.161 228.133 71.6428C292.103 79.5178 340.644 129.198 349.808 189.994C351.038 198.155 357.444 204.547 365.627 205.555L378.235 207.107C390.132 208.571 400.183 198.392 398.635 186.493C387.713 102.527 321.098 33.3636 233.097 22.9991C129.239 10.7678 35.6696 84.4925 23.0969 188.427C10.5546 292.11 84.2221 386.413 187.813 399.165C275.384 409.946 356.34 359.002 387.127 280.386C391.472 269.29 384.082 257.084 372.268 255.629Z" fill="#9DF0C4"/>
<path d="M725.277 585.625L712.58 586.22C704.345 586.605 697.474 592.495 695.63 600.538C681.895 660.46 629.743 706.333 565.352 709.347C487.845 712.975 422.168 653.117 418.536 575.511C414.904 497.918 474.69 432.176 552.209 428.548C616.592 425.534 672.807 466.328 692.081 524.711C694.669 532.548 702.061 537.77 710.296 537.385L722.985 536.791C734.958 536.231 743.151 524.503 739.621 513.036C714.711 432.109 637.397 375.155 548.908 379.763C444.473 385.201 364.66 473.634 369.775 578.202C374.878 682.516 463.378 763.061 567.637 758.182C655.772 754.057 726.99 690.204 744.094 607.525C746.508 595.856 737.167 585.069 725.277 585.625Z" fill="#3FB778"/>
<path d="M544.793 429.615L532.104 428.863C523.875 428.375 516.42 433.505 513.735 441.308C493.738 499.44 437.026 539.539 372.677 535.724C295.221 531.132 236.246 464.662 240.844 387.108C245.441 309.567 311.845 250.518 389.313 255.11C453.653 258.925 505.238 305.437 518.228 365.531C519.972 373.598 526.77 379.573 535 380.061L547.68 380.812C559.646 381.522 569.033 370.727 566.736 358.95C550.527 275.843 479.672 211.03 391.192 206.25C286.768 200.61 198.048 280.104 192.072 384.626C186.11 488.894 265.593 578.35 369.784 584.527C457.86 589.749 535.434 533.788 561.188 453.382C564.823 442.035 556.676 430.32 544.793 429.615Z" fill="#5DF4F4"/>
</svg>
