<svg width="33" height="33" viewBox="0 0 33 33" fill="none" xmlns="http://www.w3.org/2000/svg">
<path d="M16.2258 7.90388C11.6225 7.90388 7.90935 11.6178 7.90935 16.2222C7.90935 20.8266 11.6225 24.5406 16.2258 24.5406C20.8292 24.5406 24.5423 20.8266 24.5423 16.2222C24.5423 11.6178 20.8292 7.90388 16.2258 7.90388ZM16.2258 21.6302C13.251 21.6302 10.819 19.205 10.819 16.2222C10.819 13.2395 13.2438 10.8142 16.2258 10.8142C19.2079 10.8142 21.6326 13.2395 21.6326 16.2222C21.6326 19.205 19.2007 21.6302 16.2258 21.6302ZM26.8223 7.56361C26.8223 8.64232 25.9537 9.50384 24.8825 9.50384C23.8041 9.50384 22.9427 8.63508 22.9427 7.56361C22.9427 6.49215 23.8113 5.62339 24.8825 5.62339C25.9537 5.62339 26.8223 6.49215 26.8223 7.56361ZM32.3304 9.53279C32.2074 6.93376 31.6139 4.63156 29.7103 2.73477C27.8139 0.837988 25.5122 0.244338 22.9138 0.114024C20.2357 -0.0380081 12.2087 -0.0380081 9.53067 0.114024C6.93946 0.237098 4.63776 0.830748 2.73416 2.72753C0.830563 4.62432 0.244283 6.92652 0.113999 9.52555C-0.0379996 12.2042 -0.0379996 20.233 0.113999 22.9116C0.237045 25.5107 0.830563 27.8129 2.73416 29.7097C4.63776 31.6065 6.93222 32.2001 9.53067 32.3304C12.2087 32.4824 20.2357 32.4824 22.9138 32.3304C25.5122 32.2073 27.8139 31.6137 29.7103 29.7097C31.6066 27.8129 32.2002 25.5107 32.3304 22.9116C32.4824 20.233 32.4824 12.2115 32.3304 9.53279ZM28.8707 25.7858C28.3061 27.2048 27.2132 28.2979 25.7873 28.8699C23.6521 29.7169 18.5854 29.5214 16.2258 29.5214C13.8662 29.5214 8.79239 29.7097 6.66441 28.8699C5.24576 28.3052 4.15282 27.212 3.58101 25.7858C2.73416 23.6501 2.92959 18.5823 2.92959 16.2222C2.92959 13.8621 2.7414 8.78711 3.58101 6.65866C4.14558 5.23969 5.23852 4.1465 6.66441 3.57457C8.79963 2.72753 13.8662 2.923 16.2258 2.923C18.5854 2.923 23.6593 2.73477 25.7873 3.57457C27.2059 4.13926 28.2989 5.23245 28.8707 6.65866C29.7175 8.79435 29.5221 13.8621 29.5221 16.2222C29.5221 18.5823 29.7175 23.6573 28.8707 25.7858Z" fill="#3FB778"/>
</svg>
