<svg width="29" height="29" viewBox="0 0 29 29" fill="none" xmlns="http://www.w3.org/2000/svg">
<path d="M26.7795 0.1604H2.05353C0.920547 0.1604 0 1.09382 0 2.23968V26.9206C0 28.0665 0.920547 28.9999 2.05353 28.9999H26.7795C27.9125 28.9999 28.8395 28.0665 28.8395 26.9206V2.23968C28.8395 1.09382 27.9125 0.1604 26.7795 0.1604ZM8.71622 24.88H4.4418V11.1168H8.72266V24.88H8.71622ZM6.57901 9.23712C5.20785 9.23712 4.10062 8.12345 4.10062 6.75872C4.10062 5.394 5.20785 4.28033 6.57901 4.28033C7.94374 4.28033 9.05741 5.394 9.05741 6.75872C9.05741 8.12989 7.95018 9.23712 6.57901 9.23712ZM24.7389 24.88H20.4645V18.1851C20.4645 16.5886 20.4323 14.5351 18.2436 14.5351C16.0162 14.5351 15.675 16.2732 15.675 18.0692V24.88H11.4006V11.1168H15.5012V12.9966H15.5592C16.1321 11.9151 17.529 10.7757 19.6083 10.7757C23.9342 10.7757 24.7389 13.6274 24.7389 17.3354V24.88Z" fill="#3FB778"/>
</svg>
