<svg width="237" height="44" viewBox="0 0 237 44" fill="none" xmlns="http://www.w3.org/2000/svg">
<g clip-path="url(#clip0_14_193)">
<path d="M78.274 26.0782V30.9765C78.274 32.6027 78.8555 33.4305 80.3831 33.4305C80.7773 33.4305 81.0829 33.3714 81.3293 33.3418V37.5108C80.8069 37.6981 80.1663 37.7868 79.1906 37.7868C74.4106 37.7868 73.3067 34.5442 73.3067 31.5087V26.088H71.375V21.9881H73.3067V18.7258H78.2641V21.9684H81.3293V26.0683H78.274V26.0782Z" fill="black"/>
<path d="M99.9762 29.7544C99.9762 34.3471 96.5168 37.8952 91.6481 37.8952C86.809 37.8952 83.3201 34.3471 83.3201 29.7544C83.3201 25.132 86.809 21.6135 91.6481 21.6135C96.5168 21.6037 99.9762 25.132 99.9762 29.7544ZM94.9892 29.7544C94.9892 27.9508 93.6685 26.4133 91.6481 26.4133C89.6573 26.4133 88.3366 27.9409 88.3366 29.7544C88.3366 31.5579 89.6573 33.0659 91.6481 33.0659C93.6685 33.056 94.9892 31.5579 94.9892 29.7544Z" fill="black"/>
<path d="M118.288 16.0647V37.5008H113.331V36.0028C112.414 37.1066 111.034 37.9049 108.955 37.9049C104.116 37.9049 101.514 33.8345 101.514 29.7641C101.514 25.6937 104.116 21.6233 108.955 21.6233C111.034 21.6233 112.414 22.4216 113.331 23.5255V16.0647H118.288ZM113.173 29.7543C113.173 27.6747 111.704 26.4132 109.832 26.4132C107.782 26.4132 106.52 27.8225 106.52 29.7543C106.52 31.6564 107.772 33.0658 109.832 33.0658C111.704 33.0559 113.173 31.8042 113.173 29.7543Z" fill="black"/>
<path d="M135.25 27.8524V37.5011H130.292V36.0622C129.464 37.2547 127.631 37.8953 126.035 37.8953C123.955 37.8953 120.742 37.097 120.742 33.3321C120.742 28.1875 127.414 28.1875 128.459 28.1875C129.159 28.1875 129.957 28.1875 130.292 28.1875V28.1283C130.292 26.6598 129.553 25.6151 127.75 25.6151C126.498 25.6151 125.424 26.1079 124.813 26.5908L121.57 24.3832C123.255 22.6091 125.581 21.594 128.548 21.594C133.505 21.6038 135.25 24.1466 135.25 27.8524ZM130.292 30.6711C130.174 30.6711 130.016 30.6711 129.898 30.6711C127.414 30.6711 125.769 31.1343 125.769 32.6915C125.769 33.8249 126.685 34.2487 127.759 34.2487C128.834 34.2487 129.869 33.7264 130.302 33.1449V30.6711H130.292Z" fill="black"/>
<path d="M153.502 21.9685L144.987 43.4047H139.931L142.779 36.5747L136.63 21.9685H141.892L145.017 30.8189L148.2 21.9685H153.502Z" fill="black"/>
<path d="M161.771 26.0782V30.9765C161.771 32.6027 162.353 33.4305 163.881 33.4305C164.275 33.4305 164.58 33.3714 164.827 33.3418V37.5108C164.304 37.6981 163.664 37.7868 162.688 37.7868C157.908 37.7868 156.804 34.5442 156.804 31.5087V26.088H154.872V21.9881H156.804V18.7258H161.762V21.9684H164.827V26.0683H161.771V26.0782Z" fill="black"/>
<path d="M183.474 29.7544C183.474 34.3471 180.014 37.8952 175.146 37.8952C170.307 37.8952 166.818 34.3471 166.818 29.7544C166.818 25.132 170.307 21.6135 175.146 21.6135C180.014 21.6037 183.474 25.132 183.474 29.7544ZM178.487 29.7544C178.487 27.9508 177.166 26.4133 175.146 26.4133C173.155 26.4133 171.834 27.9409 171.834 29.7544C171.834 31.5579 173.155 33.0659 175.146 33.0659C177.166 33.056 178.487 31.5579 178.487 29.7544Z" fill="black"/>
<path d="M201.786 16.0647V37.5008H196.828V36.0028C195.912 37.1066 194.532 37.9049 192.452 37.9049C187.613 37.9049 185.011 33.8345 185.011 29.7641C185.011 25.6937 187.613 21.6233 192.452 21.6233C194.532 21.6233 195.912 22.4216 196.828 23.5255V16.0647H201.786ZM196.671 29.7543C196.671 27.6747 195.202 26.4132 193.329 26.4132C191.279 26.4132 190.018 27.8225 190.018 29.7543C190.018 31.6564 191.27 33.0658 193.329 33.0658C195.202 33.0559 196.671 31.8042 196.671 29.7543Z" fill="black"/>
<path d="M218.747 27.8524V37.5011H213.79V36.0622C212.962 37.2547 211.129 37.8953 209.532 37.8953C207.453 37.8953 204.24 37.097 204.24 33.3321C204.24 28.1875 210.912 28.1875 211.957 28.1875C212.656 28.1875 213.455 28.1875 213.79 28.1875V28.1283C213.79 26.6598 213.051 25.6151 211.247 25.6151C209.995 25.6151 208.921 26.1079 208.31 26.5908L205.068 24.3832C206.753 22.6091 209.079 21.594 212.045 21.594C217.003 21.6038 218.747 24.1466 218.747 27.8524ZM213.79 30.6711C213.672 30.6711 213.514 30.6711 213.396 30.6711C210.912 30.6711 209.266 31.1343 209.266 32.6915C209.266 33.8249 210.183 34.2487 211.257 34.2487C212.331 34.2487 213.366 33.7264 213.8 33.1449V30.6711H213.79Z" fill="black"/>
<path d="M237 21.9685L228.485 43.4047H223.429L226.277 36.5747L220.127 21.9685H225.39L228.514 30.8189L231.698 21.9685H237Z" fill="black"/>
<path d="M62.4753 17.3855C31.2426 7.26897e-06 0 17.3855 0 17.3855V6.5639C0 6.5639 29.1334 -8.19993 62.4753 6.5639V17.3855Z" fill="#477B6B"/>
<path d="M24.1266 9.34326H13.8668V41.0293H24.1266V9.34326Z" fill="#477B6B"/>
<path d="M48.6084 9.34326H38.3486V41.0293H48.6084V9.34326Z" fill="#477B6B"/>
</g>
<defs>
<clipPath id="clip0_14_193">
<rect width="237" height="43.4045" fill="white"/>
</clipPath>
</defs>
</svg>
