<svg width="267" height="44" viewBox="0 0 267 44" fill="none" xmlns="http://www.w3.org/2000/svg">
<rect width="253.749" height="44" fill="#9DF0C4"/>
<rect x="258.387" width="8.6129" height="44" fill="#F8F8F8"/>
<path d="M52.35 13.5V15.775H47.925V31H45.425V15.775H41V13.5H52.35ZM56.2535 20.525C57.1035 18.825 58.8535 18.025 60.4785 18.025V20.6C56.7285 20.15 56.2535 23 56.2535 25.325V31H53.9785V18.325H56.2535V20.525ZM71.7623 18.325H74.0373V31H71.7623V29.25C71.0123 30.375 69.7623 31.325 67.8623 31.325C65.0123 31.325 62.9873 28.95 62.9873 26.275V18.325H65.2623V25.6C65.2623 27.4 66.0123 29.15 68.3873 29.15C70.7873 29.15 71.7623 27.1 71.7623 25.6V18.325ZM82.1189 23.65C85.2189 24.3 86.2439 25.3 86.2439 27.2C86.2439 29.45 84.6439 31.325 81.2689 31.325C78.7689 31.325 76.6689 30.325 76.1689 28.425L78.3939 27.675C78.5939 28.325 79.2689 29.225 81.3189 29.225C82.9689 29.225 83.8939 28.55 83.8939 27.425C83.8939 25.95 81.7689 25.95 80.0189 25.55C77.6439 25.025 76.6189 23.875 76.6189 22C76.6189 19.675 78.5439 18.025 81.2939 18.025C83.3439 18.025 85.1689 19.075 85.6189 20.95L83.4939 21.525C83.2689 20.825 82.5189 20.075 81.0939 20.075C79.8439 20.075 78.9189 20.775 78.9189 21.825C78.9189 23.25 80.6689 23.35 82.1189 23.65ZM94.4338 20.5H91.5088V26.05C91.5088 27.85 91.5338 29.05 93.5088 29.05C93.8838 29.05 94.1588 29.025 94.4338 29V31C94.1088 31.075 93.7088 31.125 93.2088 31.125C90.4588 31.125 89.2338 29.65 89.2338 26.875V20.5H87.2588V18.325H89.2338V15.675H91.5088V18.325H94.4338V20.5ZM102.744 18.025C106.194 18.025 109.419 20.925 108.819 25.65H98.7443C99.0943 27.725 100.644 29.15 103.119 29.15C104.494 29.15 105.744 28.625 106.444 27.725L108.319 28.925C107.194 30.45 105.344 31.325 103.119 31.325C98.9193 31.325 96.3193 28.325 96.3193 24.675C96.3193 21.025 99.0193 18.025 102.744 18.025ZM98.7443 23.7H106.519C106.219 21.55 104.894 20.175 102.744 20.175C100.569 20.175 99.0943 21.6 98.7443 23.7ZM121.575 13.5H123.85V31H121.575V29.225C120.625 30.425 119.175 31.325 116.975 31.325C113.025 31.325 110.65 28 110.65 24.675C110.65 21.35 113.025 18.025 116.975 18.025C119.175 18.025 120.625 18.925 121.575 20.1V13.5ZM117.2 29.15C119.975 29.15 121.575 27.175 121.575 24.675C121.575 22.175 119.975 20.175 117.2 20.175C114.575 20.175 113 22.125 113 24.675C113 27.225 114.575 29.15 117.2 29.15ZM140.712 18.025C144.662 18.025 147.037 21.35 147.037 24.675C147.037 28 144.662 31.325 140.712 31.325C138.512 31.325 137.062 30.425 136.112 29.225V31H133.837V13.5H136.112V20.1C137.062 18.925 138.512 18.025 140.712 18.025ZM140.487 29.15C143.112 29.15 144.687 27.225 144.687 24.675C144.687 22.125 143.112 20.175 140.487 20.175C137.712 20.175 136.112 22.175 136.112 24.675C136.112 27.175 137.712 29.15 140.487 29.15ZM157.822 18.325H160.347L153.422 35.825H150.972L153.222 30.35L147.922 18.325H150.447L154.347 27.475L157.822 18.325Z" fill="black"/>
</svg>
