<svg width="31" height="30" viewBox="0 0 31 30" fill="none" xmlns="http://www.w3.org/2000/svg">
<path d="M27.4923 7.47126C27.5118 7.78667 27.5118 8.10216 27.5118 8.41757C27.5118 18.0382 21.1928 29.1234 9.6437 29.1234C6.08563 29.1234 2.78035 27.9293 0 25.8565C0.505535 25.9241 0.991559 25.9466 1.51654 25.9466C4.45238 25.9466 7.15499 24.7976 9.31316 22.8374C6.55226 22.7697 4.23854 20.6744 3.44137 17.7904C3.83026 17.858 4.21909 17.903 4.62744 17.903C5.19126 17.903 5.75515 17.8129 6.28007 17.6552C3.40253 16.9793 1.2443 14.0503 1.2443 10.5129V10.4228C2.08031 10.9636 3.05254 11.3015 4.08294 11.3466C2.3914 10.0397 1.2832 7.80921 1.2832 5.28574C1.2832 3.93391 1.59423 2.69471 2.13866 1.61322C5.2301 6.02927 9.87699 8.91317 15.0876 9.22866C14.9904 8.68791 14.9321 8.1247 14.9321 7.56141C14.9321 3.55087 17.7319 0.283936 21.2122 0.283936C23.0204 0.283936 24.6535 1.16264 25.8007 2.58208C27.22 2.26667 28.581 1.6583 29.7865 0.82468C29.3198 2.51453 28.3283 3.93398 27.0256 4.83515C28.2894 4.67751 29.5143 4.27187 30.642 3.70865C29.7866 5.15057 28.7172 6.43478 27.4923 7.47126Z" fill="#3FB778"/>
</svg>
